<mxfile host="app.diagrams.net" modified="2021-09-06T13:32:43.429Z" agent="5.0 (Windows NT 6.3; Win64; x64) AppleWebKit/537.36 (KHTML, like Gecko) Chrome/92.0.4515.159 Safari/537.36" etag="ru2FPoiq66YnfJhVLD9r" version="15.0.6" type="github">
  <diagram id="C5RBs43oDa-KdzZeNtuy" name="Page-1">
    <mxGraphModel dx="868" dy="450" grid="1" gridSize="10" guides="1" tooltips="1" connect="1" arrows="1" fold="1" page="1" pageScale="1" pageWidth="827" pageHeight="1169" math="0" shadow="0">
      <root>
        <mxCell id="WIyWlLk6GJQsqaUBKTNV-0" />
        <mxCell id="WIyWlLk6GJQsqaUBKTNV-1" parent="WIyWlLk6GJQsqaUBKTNV-0" />
        <mxCell id="bvr5IJMdS9BB2gtfZASn-0" value="Passenger" style="swimlane;fontStyle=1;align=center;verticalAlign=top;childLayout=stackLayout;horizontal=1;startSize=26;horizontalStack=0;resizeParent=1;resizeParentMax=0;resizeLast=0;collapsible=1;marginBottom=0;" vertex="1" parent="WIyWlLk6GJQsqaUBKTNV-1">
          <mxGeometry x="430" y="40" width="160" height="130" as="geometry" />
        </mxCell>
        <mxCell id="bvr5IJMdS9BB2gtfZASn-1" value="+id:int&#xa;+address:Address&#xa;+contact:Contact" style="text;strokeColor=none;fillColor=none;align=left;verticalAlign=top;spacingLeft=4;spacingRight=4;overflow=hidden;rotatable=0;points=[[0,0.5],[1,0.5]];portConstraint=eastwest;" vertex="1" parent="bvr5IJMdS9BB2gtfZASn-0">
          <mxGeometry y="26" width="160" height="54" as="geometry" />
        </mxCell>
        <mxCell id="bvr5IJMdS9BB2gtfZASn-2" value="" style="line;strokeWidth=1;fillColor=none;align=left;verticalAlign=middle;spacingTop=-1;spacingLeft=3;spacingRight=3;rotatable=0;labelPosition=right;points=[];portConstraint=eastwest;" vertex="1" parent="bvr5IJMdS9BB2gtfZASn-0">
          <mxGeometry y="80" width="160" height="8" as="geometry" />
        </mxCell>
        <mxCell id="bvr5IJMdS9BB2gtfZASn-3" value="+getContact():contact&#xa;+getAddress():Address" style="text;strokeColor=none;fillColor=none;align=left;verticalAlign=top;spacingLeft=4;spacingRight=4;overflow=hidden;rotatable=0;points=[[0,0.5],[1,0.5]];portConstraint=eastwest;" vertex="1" parent="bvr5IJMdS9BB2gtfZASn-0">
          <mxGeometry y="88" width="160" height="42" as="geometry" />
        </mxCell>
        <mxCell id="bvr5IJMdS9BB2gtfZASn-4" value="Address" style="swimlane;fontStyle=1;align=center;verticalAlign=top;childLayout=stackLayout;horizontal=1;startSize=26;horizontalStack=0;resizeParent=1;resizeParentMax=0;resizeLast=0;collapsible=1;marginBottom=0;" vertex="1" parent="WIyWlLk6GJQsqaUBKTNV-1">
          <mxGeometry x="40" y="40" width="290" height="130" as="geometry" />
        </mxCell>
        <mxCell id="bvr5IJMdS9BB2gtfZASn-5" value="+street:String&#xa;+city:String&#xa;+state:String&#xa;" style="text;strokeColor=none;fillColor=none;align=left;verticalAlign=top;spacingLeft=4;spacingRight=4;overflow=hidden;rotatable=0;points=[[0,0.5],[1,0.5]];portConstraint=eastwest;" vertex="1" parent="bvr5IJMdS9BB2gtfZASn-4">
          <mxGeometry y="26" width="290" height="54" as="geometry" />
        </mxCell>
        <mxCell id="bvr5IJMdS9BB2gtfZASn-6" value="" style="line;strokeWidth=1;fillColor=none;align=left;verticalAlign=middle;spacingTop=-1;spacingLeft=3;spacingRight=3;rotatable=0;labelPosition=right;points=[];portConstraint=eastwest;" vertex="1" parent="bvr5IJMdS9BB2gtfZASn-4">
          <mxGeometry y="80" width="290" height="8" as="geometry" />
        </mxCell>
        <mxCell id="bvr5IJMdS9BB2gtfZASn-7" value="+getAddressDetails:String&#xa;+updateAddressDetails(addressDetails:String):void&#xa;" style="text;strokeColor=none;fillColor=none;align=left;verticalAlign=top;spacingLeft=4;spacingRight=4;overflow=hidden;rotatable=0;points=[[0,0.5],[1,0.5]];portConstraint=eastwest;" vertex="1" parent="bvr5IJMdS9BB2gtfZASn-4">
          <mxGeometry y="88" width="290" height="42" as="geometry" />
        </mxCell>
        <mxCell id="bvr5IJMdS9BB2gtfZASn-8" value="Contact" style="swimlane;fontStyle=1;align=center;verticalAlign=top;childLayout=stackLayout;horizontal=1;startSize=26;horizontalStack=0;resizeParent=1;resizeParentMax=0;resizeLast=0;collapsible=1;marginBottom=0;" vertex="1" parent="WIyWlLk6GJQsqaUBKTNV-1">
          <mxGeometry x="690" y="40" width="280" height="140" as="geometry" />
        </mxCell>
        <mxCell id="bvr5IJMdS9BB2gtfZASn-9" value="+name:String&#xa;+phone:String&#xa;+email:String" style="text;strokeColor=none;fillColor=none;align=left;verticalAlign=top;spacingLeft=4;spacingRight=4;overflow=hidden;rotatable=0;points=[[0,0.5],[1,0.5]];portConstraint=eastwest;" vertex="1" parent="bvr5IJMdS9BB2gtfZASn-8">
          <mxGeometry y="26" width="280" height="54" as="geometry" />
        </mxCell>
        <mxCell id="bvr5IJMdS9BB2gtfZASn-10" value="" style="line;strokeWidth=1;fillColor=none;align=left;verticalAlign=middle;spacingTop=-1;spacingLeft=3;spacingRight=3;rotatable=0;labelPosition=right;points=[];portConstraint=eastwest;" vertex="1" parent="bvr5IJMdS9BB2gtfZASn-8">
          <mxGeometry y="80" width="280" height="8" as="geometry" />
        </mxCell>
        <mxCell id="bvr5IJMdS9BB2gtfZASn-11" value="+getContactDetails():String&#xa;+updateContactDetails(contactDetails:String):void" style="text;strokeColor=none;fillColor=none;align=left;verticalAlign=top;spacingLeft=4;spacingRight=4;overflow=hidden;rotatable=0;points=[[0,0.5],[1,0.5]];portConstraint=eastwest;" vertex="1" parent="bvr5IJMdS9BB2gtfZASn-8">
          <mxGeometry y="88" width="280" height="52" as="geometry" />
        </mxCell>
        <mxCell id="bvr5IJMdS9BB2gtfZASn-12" value="" style="endArrow=diamondThin;endFill=1;endSize=24;html=1;" edge="1" parent="WIyWlLk6GJQsqaUBKTNV-1">
          <mxGeometry width="160" relative="1" as="geometry">
            <mxPoint x="330" y="104.5" as="sourcePoint" />
            <mxPoint x="430" y="105" as="targetPoint" />
            <Array as="points">
              <mxPoint x="360" y="104.5" />
            </Array>
          </mxGeometry>
        </mxCell>
        <mxCell id="bvr5IJMdS9BB2gtfZASn-13" value="1&lt;span style=&quot;white-space: pre&quot;&gt;	&lt;/span&gt;1" style="edgeLabel;html=1;align=center;verticalAlign=middle;resizable=0;points=[];" vertex="1" connectable="0" parent="bvr5IJMdS9BB2gtfZASn-12">
          <mxGeometry x="0.0199" y="1" relative="1" as="geometry">
            <mxPoint as="offset" />
          </mxGeometry>
        </mxCell>
        <mxCell id="bvr5IJMdS9BB2gtfZASn-14" value="" style="endArrow=diamondThin;endFill=1;endSize=24;html=1;" edge="1" parent="WIyWlLk6GJQsqaUBKTNV-1">
          <mxGeometry width="160" relative="1" as="geometry">
            <mxPoint x="690" y="93" as="sourcePoint" />
            <mxPoint x="590" y="93" as="targetPoint" />
          </mxGeometry>
        </mxCell>
        <mxCell id="bvr5IJMdS9BB2gtfZASn-15" value="1&lt;span style=&quot;white-space: pre&quot;&gt;	&lt;/span&gt;1" style="edgeLabel;html=1;align=center;verticalAlign=middle;resizable=0;points=[];" vertex="1" connectable="0" parent="bvr5IJMdS9BB2gtfZASn-14">
          <mxGeometry x="-0.28" y="3" relative="1" as="geometry">
            <mxPoint as="offset" />
          </mxGeometry>
        </mxCell>
        <mxCell id="bvr5IJMdS9BB2gtfZASn-16" value="Ticket" style="swimlane;fontStyle=1;align=center;verticalAlign=top;childLayout=stackLayout;horizontal=1;startSize=26;horizontalStack=0;resizeParent=1;resizeParentMax=0;resizeLast=0;collapsible=1;marginBottom=0;" vertex="1" parent="WIyWlLk6GJQsqaUBKTNV-1">
          <mxGeometry x="440" y="240" width="160" height="292" as="geometry" />
        </mxCell>
        <mxCell id="bvr5IJMdS9BB2gtfZASn-17" value="+pnr:String&#xa;+from:String&#xa;+to:String&#xa;+flight:Flight&#xa;+depatureDateTime:String&#xa;+arrivalDateTime:String&#xa;+passenger:Passenger&#xa;+seatNo:String&#xa;+price:float&#xa;+cancelled:boolean" style="text;strokeColor=none;fillColor=none;align=left;verticalAlign=top;spacingLeft=4;spacingRight=4;overflow=hidden;rotatable=0;points=[[0,0.5],[1,0.5]];portConstraint=eastwest;" vertex="1" parent="bvr5IJMdS9BB2gtfZASn-16">
          <mxGeometry y="26" width="160" height="154" as="geometry" />
        </mxCell>
        <mxCell id="bvr5IJMdS9BB2gtfZASn-18" value="" style="line;strokeWidth=1;fillColor=none;align=left;verticalAlign=middle;spacingTop=-1;spacingLeft=3;spacingRight=3;rotatable=0;labelPosition=right;points=[];portConstraint=eastwest;" vertex="1" parent="bvr5IJMdS9BB2gtfZASn-16">
          <mxGeometry y="180" width="160" height="8" as="geometry" />
        </mxCell>
        <mxCell id="bvr5IJMdS9BB2gtfZASn-19" value="+checkStatus():String&#xa;+getFlightDuration():int&#xa;+cancel:void" style="text;strokeColor=none;fillColor=none;align=left;verticalAlign=top;spacingLeft=4;spacingRight=4;overflow=hidden;rotatable=0;points=[[0,0.5],[1,0.5]];portConstraint=eastwest;" vertex="1" parent="bvr5IJMdS9BB2gtfZASn-16">
          <mxGeometry y="188" width="160" height="52" as="geometry" />
        </mxCell>
        <mxCell id="bvr5IJMdS9BB2gtfZASn-22" value="+checkStatus():String&#xa;+getFlightDuration():int&#xa;+cancel:void" style="text;strokeColor=none;fillColor=none;align=left;verticalAlign=top;spacingLeft=4;spacingRight=4;overflow=hidden;rotatable=0;points=[[0,0.5],[1,0.5]];portConstraint=eastwest;" vertex="1" parent="bvr5IJMdS9BB2gtfZASn-16">
          <mxGeometry y="240" width="160" height="52" as="geometry" />
        </mxCell>
        <mxCell id="bvr5IJMdS9BB2gtfZASn-20" value="" style="endArrow=diamondThin;endFill=0;endSize=24;html=1;" edge="1" parent="WIyWlLk6GJQsqaUBKTNV-1">
          <mxGeometry width="160" relative="1" as="geometry">
            <mxPoint x="507" y="172" as="sourcePoint" />
            <mxPoint x="506" y="242" as="targetPoint" />
          </mxGeometry>
        </mxCell>
        <mxCell id="bvr5IJMdS9BB2gtfZASn-21" value="1&lt;span style=&quot;white-space: pre&quot;&gt;	&lt;/span&gt;1" style="edgeLabel;html=1;align=center;verticalAlign=middle;resizable=0;points=[];" vertex="1" connectable="0" parent="bvr5IJMdS9BB2gtfZASn-20">
          <mxGeometry x="-0.3426" y="-1" relative="1" as="geometry">
            <mxPoint as="offset" />
          </mxGeometry>
        </mxCell>
        <mxCell id="bvr5IJMdS9BB2gtfZASn-23" value="RegularTicket" style="swimlane;fontStyle=1;align=center;verticalAlign=top;childLayout=stackLayout;horizontal=1;startSize=26;horizontalStack=0;resizeParent=1;resizeParentMax=0;resizeLast=0;collapsible=1;marginBottom=0;" vertex="1" parent="WIyWlLk6GJQsqaUBKTNV-1">
          <mxGeometry x="240" y="600" width="300" height="120" as="geometry" />
        </mxCell>
        <mxCell id="bvr5IJMdS9BB2gtfZASn-24" value="+specialServices:String&#xa;" style="text;strokeColor=none;fillColor=none;align=left;verticalAlign=top;spacingLeft=4;spacingRight=4;overflow=hidden;rotatable=0;points=[[0,0.5],[1,0.5]];portConstraint=eastwest;" vertex="1" parent="bvr5IJMdS9BB2gtfZASn-23">
          <mxGeometry y="26" width="300" height="26" as="geometry" />
        </mxCell>
        <mxCell id="bvr5IJMdS9BB2gtfZASn-25" value="" style="line;strokeWidth=1;fillColor=none;align=left;verticalAlign=middle;spacingTop=-1;spacingLeft=3;spacingRight=3;rotatable=0;labelPosition=right;points=[];portConstraint=eastwest;" vertex="1" parent="bvr5IJMdS9BB2gtfZASn-23">
          <mxGeometry y="52" width="300" height="8" as="geometry" />
        </mxCell>
        <mxCell id="bvr5IJMdS9BB2gtfZASn-26" value="+getSpecialServices():String&#xa;+updateSpecialServices(specialServices:String):void" style="text;strokeColor=none;fillColor=none;align=left;verticalAlign=top;spacingLeft=4;spacingRight=4;overflow=hidden;rotatable=0;points=[[0,0.5],[1,0.5]];portConstraint=eastwest;" vertex="1" parent="bvr5IJMdS9BB2gtfZASn-23">
          <mxGeometry y="60" width="300" height="60" as="geometry" />
        </mxCell>
        <mxCell id="bvr5IJMdS9BB2gtfZASn-27" value="TouristTicket" style="swimlane;fontStyle=1;align=center;verticalAlign=top;childLayout=stackLayout;horizontal=1;startSize=26;horizontalStack=0;resizeParent=1;resizeParentMax=0;resizeLast=0;collapsible=1;marginBottom=0;" vertex="1" parent="WIyWlLk6GJQsqaUBKTNV-1">
          <mxGeometry x="640" y="600" width="210" height="114" as="geometry" />
        </mxCell>
        <mxCell id="bvr5IJMdS9BB2gtfZASn-28" value="+hotelAddress:String&#xa;+selectedTouistLocation:String(0...5)" style="text;strokeColor=none;fillColor=none;align=left;verticalAlign=top;spacingLeft=4;spacingRight=4;overflow=hidden;rotatable=0;points=[[0,0.5],[1,0.5]];portConstraint=eastwest;" vertex="1" parent="bvr5IJMdS9BB2gtfZASn-27">
          <mxGeometry y="26" width="210" height="54" as="geometry" />
        </mxCell>
        <mxCell id="bvr5IJMdS9BB2gtfZASn-29" value="" style="line;strokeWidth=1;fillColor=none;align=left;verticalAlign=middle;spacingTop=-1;spacingLeft=3;spacingRight=3;rotatable=0;labelPosition=right;points=[];portConstraint=eastwest;" vertex="1" parent="bvr5IJMdS9BB2gtfZASn-27">
          <mxGeometry y="80" width="210" height="8" as="geometry" />
        </mxCell>
        <mxCell id="bvr5IJMdS9BB2gtfZASn-30" value="+getHotelAddress:String" style="text;strokeColor=none;fillColor=none;align=left;verticalAlign=top;spacingLeft=4;spacingRight=4;overflow=hidden;rotatable=0;points=[[0,0.5],[1,0.5]];portConstraint=eastwest;" vertex="1" parent="bvr5IJMdS9BB2gtfZASn-27">
          <mxGeometry y="88" width="210" height="26" as="geometry" />
        </mxCell>
        <mxCell id="bvr5IJMdS9BB2gtfZASn-31" value="" style="endArrow=diamondThin;endFill=0;endSize=24;html=1;" edge="1" parent="WIyWlLk6GJQsqaUBKTNV-1">
          <mxGeometry width="160" relative="1" as="geometry">
            <mxPoint x="338" y="598" as="sourcePoint" />
            <mxPoint x="479" y="536" as="targetPoint" />
          </mxGeometry>
        </mxCell>
        <mxCell id="bvr5IJMdS9BB2gtfZASn-32" value="" style="endArrow=diamondThin;endFill=0;endSize=24;html=1;" edge="1" parent="WIyWlLk6GJQsqaUBKTNV-1">
          <mxGeometry width="160" relative="1" as="geometry">
            <mxPoint x="710" y="600" as="sourcePoint" />
            <mxPoint x="550" y="537" as="targetPoint" />
          </mxGeometry>
        </mxCell>
        <mxCell id="bvr5IJMdS9BB2gtfZASn-33" value="Flight" style="swimlane;fontStyle=1;align=center;verticalAlign=top;childLayout=stackLayout;horizontal=1;startSize=26;horizontalStack=0;resizeParent=1;resizeParentMax=0;resizeLast=0;collapsible=1;marginBottom=0;" vertex="1" parent="WIyWlLk6GJQsqaUBKTNV-1">
          <mxGeometry x="80" y="280" width="200" height="160" as="geometry" />
        </mxCell>
        <mxCell id="bvr5IJMdS9BB2gtfZASn-34" value="+flightNumber:String&#xa;+airline:String&#xa;+capacity:int&#xa;+bookedSeats:int&#xa;" style="text;strokeColor=none;fillColor=none;align=left;verticalAlign=top;spacingLeft=4;spacingRight=4;overflow=hidden;rotatable=0;points=[[0,0.5],[1,0.5]];portConstraint=eastwest;" vertex="1" parent="bvr5IJMdS9BB2gtfZASn-33">
          <mxGeometry y="26" width="200" height="74" as="geometry" />
        </mxCell>
        <mxCell id="bvr5IJMdS9BB2gtfZASn-35" value="" style="line;strokeWidth=1;fillColor=none;align=left;verticalAlign=middle;spacingTop=-1;spacingLeft=3;spacingRight=3;rotatable=0;labelPosition=right;points=[];portConstraint=eastwest;" vertex="1" parent="bvr5IJMdS9BB2gtfZASn-33">
          <mxGeometry y="100" width="200" height="8" as="geometry" />
        </mxCell>
        <mxCell id="bvr5IJMdS9BB2gtfZASn-36" value="+getFlightDetails():String&#xa;+checkAvailability():boolean&#xa;+incrementBookingCounter():void" style="text;strokeColor=none;fillColor=none;align=left;verticalAlign=top;spacingLeft=4;spacingRight=4;overflow=hidden;rotatable=0;points=[[0,0.5],[1,0.5]];portConstraint=eastwest;" vertex="1" parent="bvr5IJMdS9BB2gtfZASn-33">
          <mxGeometry y="108" width="200" height="52" as="geometry" />
        </mxCell>
        <mxCell id="bvr5IJMdS9BB2gtfZASn-37" value="" style="endArrow=diamondThin;endFill=0;endSize=24;html=1;" edge="1" parent="WIyWlLk6GJQsqaUBKTNV-1">
          <mxGeometry width="160" relative="1" as="geometry">
            <mxPoint x="280" y="340" as="sourcePoint" />
            <mxPoint x="440" y="340" as="targetPoint" />
          </mxGeometry>
        </mxCell>
        <mxCell id="bvr5IJMdS9BB2gtfZASn-38" value="1&lt;span style=&quot;white-space: pre&quot;&gt;	&lt;/span&gt;1" style="edgeLabel;html=1;align=center;verticalAlign=middle;resizable=0;points=[];" vertex="1" connectable="0" parent="bvr5IJMdS9BB2gtfZASn-37">
          <mxGeometry x="-0.4625" relative="1" as="geometry">
            <mxPoint as="offset" />
          </mxGeometry>
        </mxCell>
      </root>
    </mxGraphModel>
  </diagram>
</mxfile>
